<svg width="420" height="132" viewBox="0 0 420 132" fill="none" xmlns="http://www.w3.org/2000/svg" role="img" aria-labelledby="title desc">
  <title id="title">BarberOne</title>
  <desc id="desc">Logo BarberOne</desc>
  <rect width="420" height="132" rx="24" fill="#0F0F0F"/>
  <rect x="8" y="8" width="404" height="116" rx="18" stroke="#D4AF37" stroke-opacity="0.28" stroke-width="2"/>
  <g transform="translate(32 28)">
    <rect x="0" y="0" width="72" height="72" rx="18" fill="#D4AF37"/>
    <path d="M24 20H42.5C50.3 20 55 24.2 55 30.7C55 35.1 52.7 38.2 48.8 39.6C53.4 40.9 56 44.4 56 49.2C56 56 50.8 60 42.4 60H24V20ZM32.8 27.2V36.5H41.2C44.3 36.5 46.1 34.8 46.1 31.9C46.1 29 44.2 27.2 41.1 27.2H32.8ZM32.8 43V52.8H42C45.3 52.8 47.2 50.9 47.2 47.9C47.2 44.8 45.1 43 41.8 43H32.8Z" fill="#111111"/>
    <path d="M14 14H58" stroke="#111111" stroke-width="5" stroke-linecap="round"/>
    <path d="M14 66H58" stroke="#111111" stroke-width="5" stroke-linecap="round"/>
  </g>
  <text x="124" y="62" fill="#FFFFFF" font-family="Inter, Arial, sans-serif" font-size="40" font-weight="800" letter-spacing="0">Barber</text>
  <text x="262" y="62" fill="#D4AF37" font-family="Inter, Arial, sans-serif" font-size="40" font-weight="800" letter-spacing="0">One</text>
  <text x="126" y="88" fill="#CFCFCF" font-family="Inter, Arial, sans-serif" font-size="15" font-weight="600" letter-spacing="3">GESTAO PARA BARBEARIAS</text>
</svg>
